<?xml version="1.0" standalone="no"?>
<!DOCTYPE svg PUBLIC "-//W3C//DTD SVG 20010904//EN"
 "http://www.w3.org/TR/2001/REC-SVG-20010904/DTD/svg10.dtd">
<svg version="1.0" xmlns="http://www.w3.org/2000/svg"
 width="758.000000pt" height="758.000000pt" viewBox="0 0 758.000000 758.000000"
 preserveAspectRatio="xMidYMid meet">
<metadata>
Created by potrace 1.11, written by Peter Selinger 2001-2013
</metadata>
<g transform="translate(0.000000,758.000000) scale(0.100000,-0.100000)"
fill="#000000" stroke="none">
<path d="M3425 6535 c-366 -37 -723 -126 -1050 -262 -80 -34 -320 -154 -420
-211 -220 -126 -462 -309 -678 -511 l-58 -55 1273 -1273 c843 -843 1280 -1273
1293 -1273 13 0 447 427 1285 1266 l1265 1265 -60 56 c-307 283 -562 463 -895
632 -394 200 -876 337 -1305 370 -167 13 -504 11 -650 -4z"/>
<path d="M1085 5348 c-103 -116 -222 -269 -298 -382 l-59 -89 963 -963 964
-964 505 0 505 0 -1245 1245 c-685 685 -1247 1245 -1250 1245 -3 -1 -41 -42
-85 -92z"/>
<path d="M5144 4189 l-1239 -1239 500 0 500 0 958 958 957 957 -67 100 c-112
165 -203 281 -323 412 l-47 51 -1239 -1239z"/>
<path d="M628 4708 c-94 -170 -217 -440 -252 -555 -6 -19 76 -104 586 -612
l593 -590 500 -1 500 0 -930 930 c-511 512 -932 930 -935 930 -3 0 -31 -46
-62 -102z"/>
<path d="M5935 3870 l-920 -920 500 0 500 0 583 583 582 582 -38 100 c-22 55
-51 129 -67 165 -59 138 -201 410 -215 410 -3 0 -419 -414 -925 -920z"/>
<path d="M316 3968 c-82 -273 -131 -569 -143 -860 l-6 -158 639 0 639 0 -550
550 c-302 303 -551 550 -552 550 -1 0 -14 -37 -27 -82z"/>
<path d="M6655 3490 l-540 -540 628 0 627 0 0 74 c0 173 -30 441 -74 656 -27
135 -86 350 -95 350 -3 0 -249 -243 -546 -540z"/>
<path d="M170 1975 l0 -905 3600 0 3600 0 0 905 0 905 -3600 0 -3600 0 0 -905z"/>
</g>
</svg>
